<svg width="26" height="26" viewBox="0 0 26 26" fill="none" xmlns="http://www.w3.org/2000/svg">
<path d="M4.2483 21.7517C1.92721 19.4306 0.623231 16.2825 0.623231 13C0.623231 9.71748 1.92721 6.5694 4.2483 4.2483C6.5694 1.92721 9.71748 0.623231 13 0.623231C16.2825 0.623231 19.4306 1.92721 21.7517 4.2483C24.0728 6.5694 25.3768 9.71748 25.3768 13C25.3768 16.2825 24.0728 19.4306 21.7517 21.7517C19.4306 24.0728 16.2825 25.3768 13 25.3768C9.71748 25.3768 6.5694 24.0728 4.2483 21.7517Z" fill="#3281F8" stroke="#297FFF" stroke-width="1.24646"/>
<path d="M20.5625 8.45186V8.6724L13.8523 12.6454C13.3072 12.9687 12.6558 12.9721 12.1064 12.657L5.4375 8.81334V8.45186C5.4375 7.86652 5.86141 7.39062 6.38281 7.39062H19.6172C20.1386 7.39062 20.5625 7.86652 20.5625 8.45186Z" fill="white"/>
<path d="M20.5625 10.3594V17.5985C20.5625 18.156 20.1386 18.6094 19.6172 18.6094H6.38281C5.86141 18.6094 5.4375 18.156 5.4375 17.5985V10.4857L12.1138 14.1503C12.6618 14.452 13.3131 14.4473 13.8582 14.1392L20.5625 10.3594Z" fill="white"/>
</svg>
